<?xml version="1.0" standalone="no"?>
<!DOCTYPE svg PUBLIC "-//W3C//DTD SVG 20010904//EN"
 "http://www.w3.org/TR/2001/REC-SVG-20010904/DTD/svg10.dtd">
<svg version="1.0" xmlns="http://www.w3.org/2000/svg"
 width="600.000000pt" height="600.000000pt" viewBox="0 0 600.000000 600.000000"
 preserveAspectRatio="xMidYMid meet">
<metadata>
Created by potrace 1.16, written by Peter Selinger 2001-2019
</metadata>
<g transform="translate(0.000000,600.000000) scale(0.100000,-0.100000)"
fill="#000000" stroke="none">
<path d="M0 3000 l0 -3000 3000 0 3000 0 0 3000 0 3000 -3000 0 -3000 0 0
-3000z m2963 895 c210 -36 355 -113 512 -270 152 -152 221 -277 265 -485 l19
-85 0 134 c1 121 3 133 16 115 8 -10 15 -15 15 -10 0 5 8 2 18 -5 16 -13 16
-12 1 6 -33 39 -49 85 -49 135 0 65 18 107 63 147 89 78 209 65 283 -32 39
-52 46 -147 15 -201 -16 -27 -19 -40 -11 -48 6 -6 10 -6 8 -1 -2 6 2 11 7 13
7 1 11 -196 13 -573 2 -558 2 -577 -18 -615 -48 -95 -166 -132 -261 -84 -33
17 -79 70 -91 107 l-10 28 -23 -50 c-66 -141 -268 -141 -339 1 l-26 52 0 431
c0 475 -2 493 -63 615 -43 88 -152 196 -237 238 -127 62 -266 78 -399 47 -188
-45 -355 -210 -407 -402 -20 -78 -20 -218 1 -290 57 -195 212 -349 401 -398
77 -20 225 -19 295 1 136 41 248 124 330 246 l26 39 19 -53 c14 -42 19 -93 22
-254 l4 -200 -39 -26 c-372 -246 -863 -196 -1183 121 -114 113 -208 275 -252
436 -18 67 -21 107 -21 240 -1 146 2 168 27 250 57 189 165 355 308 474 84 70
260 162 358 187 143 36 270 42 403 19z"/>
</g>
</svg>
